<svg xmlns="http://www.w3.org/2000/svg" viewBox="7324 2303.014 11.109 8.65">
  <defs>
    <style>
      .cls-1 {
        fill: #a17bfc;
      }
    </style>
  </defs>
  <path id="coment" class="cls-1" d="M.334,952.4a.384.384,0,0,0-.334.371v6.673a.364.364,0,0,0,.371.371h.865v.865a.364.364,0,0,0,.371.371.335.335,0,0,0,.21-.074l1.631-1.162h7.291a.364.364,0,0,0,.371-.371v-6.673a.364.364,0,0,0-.371-.371H.334Zm.408.741H10.38v5.932H3.337a.4.4,0,0,0-.222.074l-1.149.816v-.519a.364.364,0,0,0-.371-.371H.741Zm1.73,1.73a1.236,1.236,0,1,0,1.236,1.236A1.239,1.239,0,0,0,2.472,954.872Zm3.089,0A1.236,1.236,0,1,0,6.8,956.107,1.239,1.239,0,0,0,5.561,954.872Zm3.089,0a1.236,1.236,0,1,0,1.236,1.236A1.239,1.239,0,0,0,8.65,954.872Zm-6.179.729a.494.494,0,1,1-.494.494A.5.5,0,0,1,2.472,955.6Zm3.089,0a.494.494,0,1,1-.494.494A.5.5,0,0,1,5.561,955.6Zm3.089,0a.494.494,0,1,1-.494.494A.5.5,0,0,1,8.65,955.6Z" transform="translate(7324 1350.614)"/>
</svg>
