<svg xmlns="http://www.w3.org/2000/svg" viewBox="2748 1893.196 12.823 19.651">
  <defs>
    <style>
      .cls-1 {
        fill: #787878;
      }
    </style>
  </defs>
  <g id="icono_privado" data-name="icono privado" transform="translate(1960 1077)">
    <path id="Path_52" data-name="Path 52" class="cls-1" d="M3.253,19.748a7.328,7.328,0,0,1-.87-.2,3.571,3.571,0,0,1-2.4-3.362c-.009-1.9-.018-3.8,0-5.695A3.452,3.452,0,0,1,1.731,7.449a.358.358,0,0,0,.2-.362c-.009-.912-.033-1.825.009-2.734A4.313,4.313,0,0,1,3.983.809,4.206,4.206,0,0,1,5.906.127.606.606,0,0,0,6.005.1h.748c.042.009.087.024.129.03A3.988,3.988,0,0,1,8.359.57a4.392,4.392,0,0,1,2.483,4.056c.015.852.006,1.7,0,2.557a.225.225,0,0,0,.138.23A3.529,3.529,0,0,1,12.609,9.4c.09.266.123.541.185.811v6.281c-.027.027-.024.063-.03.1a3.582,3.582,0,0,1-2.71,3.057c-.173.042-.35.069-.523.1Q6.4,19.747,3.253,19.748ZM1.934,13.332h0c0,.936,0,1.875,0,2.812a1.618,1.618,0,0,0,1.618,1.648q2.827.013,5.653,0a1.627,1.627,0,0,0,1.636-1.651q0-2.8,0-5.608A1.623,1.623,0,0,0,9.191,8.888q-2.8,0-5.608,0a1.621,1.621,0,0,0-1.648,1.648C1.931,11.469,1.934,12.4,1.934,13.332Zm4.46-6.4H8.757c.087,0,.138-.006.138-.117-.006-.787.009-1.573-.009-2.363a2.5,2.5,0,0,0-5,.111c0,.739,0,1.475,0,2.213,0,.123.027.162.156.159C4.818,6.932,5.607,6.935,6.394,6.935Z" transform="translate(788.029 816.096)"/>
    <path id="Path_53" data-name="Path 53" class="cls-1" d="M175.111,404.707a1.207,1.207,0,1,1,1.2-1.181A1.205,1.205,0,0,1,175.111,404.707Z" transform="translate(619.309 425.932)"/>
  </g>
</svg>
