<svg xmlns="http://www.w3.org/2000/svg" viewBox="6825.039 551.521 9.744 8.342">
  <defs>
    <style>
      .cls-1 {
        fill: #a17bfc;
      }
    </style>
  </defs>
  <g id="likes" transform="translate(6825.039 551.521)">
    <path id="Path_61" data-name="Path 61" class="cls-1" d="M3.7,7.844c-.147.46-.182.485-.647.485-.768,0-1.531,0-2.3-.005-.333,0-.445-.121-.47-.455Q.143,6.08,0,4.3c-.035-.4.1-.561.51-.561.874,0,1.753-.04,2.622.02a.708.708,0,0,0,.738-.4c.126-.2.248-.4.389-.591A2.7,2.7,0,0,0,4.844.695c-.051-.379.121-.561.5-.667A.8.8,0,0,1,6.37.5c.1.217.167.44.258.657a2.737,2.737,0,0,1,.005,1.561c-.071.394-.071.394.338.394H8.816A.813.813,0,0,1,9.5,4.5a.263.263,0,0,0-.071.243.861.861,0,0,1-.2.778.3.3,0,0,0-.081.3.858.858,0,0,1-.187.733.3.3,0,0,0-.091.273A1.064,1.064,0,0,1,7.76,8.051c-1.127.02-2.253.005-3.385.005A1.405,1.405,0,0,1,3.7,7.844Zm-.131-.49a.817.817,0,0,1,.364.162.737.737,0,0,0,.394.147c.889-.005,1.783-.005,2.673-.01.253.005.505.015.753.01a.752.752,0,0,0,.637-.354.375.375,0,0,0,.03-.47c-.162-.187-.1-.268.071-.389a.481.481,0,0,0,.192-.692c-.147-.162-.091-.222.056-.323a.507.507,0,0,0,.172-.788c-.061-.1-.03-.152.045-.212a1.2,1.2,0,0,0,.212-.177.472.472,0,0,0,.126-.51A.417.417,0,0,0,8.841,3.5l-.93.015L6.108,3.5a2.949,2.949,0,0,1,.121-.788A2.848,2.848,0,0,0,6.012.649C5.91.462,5.8.361,5.587.387c-.328.015-.4.061-.359.384A2.691,2.691,0,0,1,4.678,2.8c-.091.121-.162.253-.243.384a3.219,3.219,0,0,1-.874,1.026.33.33,0,0,0-.237.379c.01.849.01,1.692,0,2.541C3.324,7.338,3.389,7.394,3.571,7.354ZM2.965,6.035c0-.561-.005-1.127.005-1.687,0-.162-.04-.222-.212-.222-.712.01-1.43.01-2.142,0-.177,0-.243.056-.227.232.035.359.076.712.1,1.071.056.743.1,1.485.157,2.228.01.167.061.273.273.268.606-.015,1.213-.01,1.814,0,.2.005.237-.071.237-.248C2.96,7.126,2.965,6.581,2.965,6.035Z" transform="translate(0.006 0.013)"/>
    <path id="Path_62" data-name="Path 62" class="cls-1" d="M40.542,140.359c-.02.162-.1.273-.268.278a.27.27,0,0,1-.015-.541C40.426,140.092,40.512,140.2,40.542,140.359Z" transform="translate(-37.975 -133.018)"/>
  </g>
</svg>
