<svg xmlns="http://www.w3.org/2000/svg" viewBox="7306.398 2302.814 9.771 9.05">
  <defs>
    <style>
      .cls-1 {
        fill: #a17bfc;
        stroke: #a17bfc;
        stroke-width: 0.4px;
      }
    </style>
  </defs>
  <path id="like" class="cls-1" d="M6.742,0A2.645,2.645,0,0,0,4.686,1,2.626,2.626,0,0,0,0,2.629C0,5.725,4.2,8.65,4.686,8.65S9.371,5.725,9.371,2.629A2.629,2.629,0,0,0,6.742,0ZM4.686,8.12C4.156,7.887.53,5.322.53,2.629a2.09,2.09,0,0,1,2.1-2.1A2.068,2.068,0,0,1,4.452,1.59a.277.277,0,0,0,.466,0A2.119,2.119,0,0,1,6.742.53a2.09,2.09,0,0,1,2.1,2.1C8.841,5.322,5.216,7.887,4.686,8.12Z" transform="translate(7306.599 2303.014)"/>
</svg>
