<svg xmlns="http://www.w3.org/2000/svg" viewBox="4015 2421 103.81 55.494">
  <defs>
    <style>
      .cls-1 {
        fill: #fff;
      }
    </style>
  </defs>
  <path id="Logo_iris_blanco" data-name="Logo iris_blanco" class="cls-1" d="M-1956.957,50.115a19.549,19.549,0,0,1-10.024-17.255V20.006a1.036,1.036,0,0,1,2.071,0c0,4.365-.037,8.73,0,13.094a17.425,17.425,0,0,0,11.227,16.257c4.327,1.591,9.321,1.054,13.87,1.054h7.305a23.009,23.009,0,0,0,6.251-.61,17.4,17.4,0,0,0,12.632-16.59,1.045,1.045,0,0,1,2.09,0,19.49,19.49,0,0,1-15.24,18.846,30.686,30.686,0,0,1-6.38.425h-8.285c-1.02,0-2.034.011-3.044.011C-1948.787,52.494-1952.988,52.288-1956.957,50.115Zm-4.069-14.814c-.943-3.717-.481-7.971-.481-11.762,0-4.143-.315-8.267,1.5-12.132a15.7,15.7,0,0,1,14.056-8.859c3.236-.037,6.454,0,9.672,0a1.036,1.036,0,0,1,0,2.071c-3.237,0-6.454-.037-9.691,0a13.58,13.58,0,0,0-12.89,9.617c-.962,3.255-.555,7.028-.555,10.375,0,3.329-.426,7.065.443,10.3a13.573,13.573,0,0,0,12.983,9.987,1.045,1.045,0,0,1,0,2.09A15.7,15.7,0,0,1-1961.026,35.3Zm18.66,11.67a1.037,1.037,0,0,1,0-2.072c3.255,0,6.528.037,9.783,0a13.545,13.545,0,0,0,12.78-9.266c1.073-3.366.647-7.249.647-10.727,0-3.329.425-7.065-.444-10.3a13.572,13.572,0,0,0-12.983-9.987,1.046,1.046,0,0,1,.037-2.09A15.693,15.693,0,0,1-1917.472,14.4c.868,3.68.425,7.823.425,11.578,0,4.217.315,8.4-1.572,12.3a15.7,15.7,0,0,1-14,8.693q-1.628.018-3.255.017C-1938.042,46.988-1940.208,46.971-1942.366,46.971Zm-3.254-22.841a8.319,8.319,0,0,1,9.154-2.442,8.4,8.4,0,0,1,5.429,7.555,1.073,1.073,0,0,1,.008.194v.018a1.082,1.082,0,0,1-.008.171,8.379,8.379,0,0,1-6.854,7.948,8.408,8.408,0,0,1-1.409.12C-1945.944,37.695-1950.136,29.545-1945.62,24.13Zm.129,5.326a6.256,6.256,0,0,0,6.2,6.2,6.281,6.281,0,0,0,6.2-6.2,6.256,6.256,0,0,0-6.2-6.2A6.256,6.256,0,0,0-1945.491,29.456Zm72.387,3.829c-.222-.2-.388-.407-.222-.685l1.128-2.237a.551.551,0,0,1,.685-.259,7.194,7.194,0,0,0,2.922.851.567.567,0,0,0,.61-.592c0-.333-.2-.777-1.85-1.369-2.533-.869-3.644-2.33-3.644-4.347,0-2.182,1.554-3.939,5.068-3.939a8.767,8.767,0,0,1,4.328,1c.3.2.518.481.333.814l-1.2,2.2a.573.573,0,0,1-.684.2,7.547,7.547,0,0,0-2.756-.74c-.426,0-.721.093-.721.462,0,.333.352.648,1.461,1.036,2.626.906,4.457,1.942,4.457,4.549,0,2.275-1.812,4.124-5.492,4.124A7.841,7.841,0,0,1-1873.1,33.285Zm-7.25.739a.628.628,0,0,1-.611-.61V21.652a.616.616,0,0,1,.611-.61h3.569a.6.6,0,0,1,.611.61V33.415a.628.628,0,0,1-.611.61Zm-11.208,0a.628.628,0,0,1-.611-.61V21.652a.616.616,0,0,1,.611-.61h1.535a.631.631,0,0,1,.592.388l.592,1.424a4.47,4.47,0,0,1,3.533-2.145c1.794,0,3.052.647,2.59,1.406l-1.591,2.589a.562.562,0,0,1-.721.3,2.117,2.117,0,0,0-.777-.166,1.717,1.717,0,0,0-1.72,1.849v6.732c0,.388-.2.61-.721.61Zm-8.323,0a.628.628,0,0,1-.611-.61V21.652a.616.616,0,0,1,.611-.61h3.569a.6.6,0,0,1,.611.61V33.415a.628.628,0,0,1-.611.61Zm-27.02-4.217A12.538,12.538,0,0,0-1939.3,17.416a12.513,12.513,0,0,0-12.391,12.392,1,1,0,0,1-1.054,1,1,1,0,0,1-1.054-1,14.636,14.636,0,0,1,14.481-14.481,14.649,14.649,0,0,1,14.481,14.481.963.963,0,0,1-1.021,1A1,1,0,0,1-1926.9,29.808Zm13.279-.573c0-4.291.038-8.581,0-12.872A17.4,17.4,0,0,0-1925.2.05c-4.291-1.461-9.211-.943-13.667-.943-4.329,0-9.211-.555-13.427.611a17.4,17.4,0,0,0-12.632,16.589,1.037,1.037,0,0,1-2.072,0A19.511,19.511,0,0,1-1951.965-2.52a30.358,30.358,0,0,1,6.474-.462h8.119c5.271,0,10.468-.352,15.313,2.127a19.548,19.548,0,0,1,10.5,17.4c.018,4.217,0,8.452,0,12.687a.979.979,0,0,1-1.036,1A.979.979,0,0,1-1913.625,29.235Zm-36.6-11.725-1.96-1.96a1.033,1.033,0,0,1,1.461-1.461l1.96,1.96a1.045,1.045,0,0,1-.769,1.766A.968.968,0,0,1-1950.226,17.509Zm20.363-1.48,1.96-1.96c.943-.943,2.4.536,1.461,1.461l-1.96,1.961a.959.959,0,0,1-.694.312A1.055,1.055,0,0,1-1929.863,16.029Zm48.7-1.5a2.569,2.569,0,0,1,2.57-2.59,2.613,2.613,0,0,1,2.608,2.59,2.585,2.585,0,0,1-2.608,2.57A2.564,2.564,0,0,1-1881.167,14.532Zm-19.512,0a2.569,2.569,0,0,1,2.571-2.59,2.613,2.613,0,0,1,2.607,2.59,2.584,2.584,0,0,1-2.607,2.57A2.553,2.553,0,0,1-1900.679,14.532Zm-39.634-.685V11.073a1.036,1.036,0,0,1,2.071,0v2.774a.978.978,0,0,1-1.035,1A.978.978,0,0,1-1940.312,13.847Z" transform="translate(5982.001 2424)"/>
</svg>
