<svg xmlns="http://www.w3.org/2000/svg" viewBox="6874.183 550.601 9.755 9.07">
  <defs>
    <style>
      .cls-1 {
        fill: none;
        stroke: #a17bfc;
      }
    </style>
  </defs>
  <path id="share" class="cls-1" d="M4.4,0C5.728.861,7.011,1.689,8.335,2.544c-1.312.85-2.6,1.683-3.931,2.544,0-.348-.006-.639,0-.924.006-.148-.046-.194-.194-.211A3.1,3.1,0,0,0,1.255,5.123,7.31,7.31,0,0,0,.131,7.411.558.558,0,0,1,0,7.65V6.8A8.654,8.654,0,0,1,.331,4.381,4.371,4.371,0,0,1,3.925,1.2c.485-.1.485-.1.485-.6C4.4.416,4.4.24,4.4,0Z" transform="translate(6874.683 551.521)"/>
</svg>
