<svg xmlns="http://www.w3.org/2000/svg" viewBox="4950 1681.919 34.546 28.153">
  <defs>
    <style>
      .cls-1 {
        fill: #00cbff;
      }
    </style>
  </defs>
  <path id="Twitter_logo" data-name="Twitter logo" class="cls-1" d="M10.312,22.073A7.559,7.559,0,0,1,6.469,20.76a7.056,7.056,0,0,1-2.625-3.422c-.094-.234,0-.234.187-.234a7.075,7.075,0,0,0,2.437-.047c.094,0,.234-.047.328-.047,0-.141-.141-.094-.187-.141a7.028,7.028,0,0,1-5.016-4.687,5.864,5.864,0,0,1-.328-2.016c0-.187.047-.234.234-.141a6.716,6.716,0,0,0,2.672.75h.187C1.219,8.151.562,5.01,2.25,1.261c.375.375.656.75.937,1.031a20.579,20.579,0,0,0,6.094,4.5,20.145,20.145,0,0,0,7.312,1.922c.328.047.328.047.281-.328A6.891,6.891,0,0,1,18.14,2.9,6.9,6.9,0,0,1,25.078.089a6.767,6.767,0,0,1,3.844,1.969.365.365,0,0,0,.375.094A13.272,13.272,0,0,0,33.187.745a3.717,3.717,0,0,1,.422-.187A7.342,7.342,0,0,1,30.656,4.4,12.94,12.94,0,0,0,34.546,3.37,13.059,13.059,0,0,1,31.687,6.51c-.047,0-.047.047-.094.047a1.007,1.007,0,0,0-.516,1.125,20.635,20.635,0,0,1-1.5,7.875,21.8,21.8,0,0,1-3.187,5.437,17.779,17.779,0,0,1-3.75,3.516,18.434,18.434,0,0,1-5.062,2.578,21.948,21.948,0,0,1-4.875.984,21.437,21.437,0,0,1-6-.328A21.727,21.727,0,0,1,1.875,26.1,14.922,14.922,0,0,1,0,25.026a15.216,15.216,0,0,0,5.437-.469A13.014,13.014,0,0,0,10.312,22.073Z" transform="translate(4950 1681.928)"/>
</svg>
