<svg xmlns="http://www.w3.org/2000/svg" viewBox="6919.599 551.521 13.43 8.672">
  <defs>
    <style>
      .cls-1 {
        fill: #a17bfc;
      }
    </style>
  </defs>
  <path id="views" class="cls-1" d="M13.417.949,10.045,2.761c-.016.008-.032.013-.066.026,0-.458,0-.9,0-1.338A1.408,1.408,0,0,0,8.529,0Q4.991,0,1.457,0A1.4,1.4,0,0,0,0,1.05V7.675a1.454,1.454,0,0,0,.846.9,1.325,1.325,0,0,0,.516.1H8.58a1.411,1.411,0,0,0,1.4-1.42c-.005-.45,0-.9,0-1.346.05-.026.079.011.111.029q1.658.893,3.314,1.783l.024.013V.944A.02.02,0,0,0,13.417.949ZM9.431,2.774V5.892c0,.481,0,.96,0,1.441a.751.751,0,0,1-.8.791H4.954v0H1.32A.756.756,0,0,1,.5,7.307C.5,6,.5,4.7.5,3.4V1.452a1.329,1.329,0,0,1,.04-.368A.748.748,0,0,1,1.325.547H8.371c.093,0,.185,0,.278,0a.746.746,0,0,1,.78.785C9.436,1.814,9.431,2.293,9.431,2.774ZM12.846,6.8q-1.381-.75-2.766-1.489a.165.165,0,0,1-.1-.172c.005-.537,0-1.074,0-1.611a.171.171,0,0,1,.1-.175q1.373-.734,2.743-1.476c.1-.056.132-.056.13.077-.005.793,0,1.584,0,2.378h0V6.726C12.954,6.808,12.962,6.866,12.846,6.8Z" transform="translate(6919.599 551.521)"/>
</svg>
