<svg xmlns="http://www.w3.org/2000/svg" viewBox="2828.169 342.176 226.462 226.502">
  <defs>
    <style>
      .cls-1 {
        fill: #d2d2f8;
      }
    </style>
  </defs>
  <path id="blank_state_icon" data-name="blank state icon" class="cls-1" d="M-1926.015,213.809c-25.8-14.06-40.835-41.359-40.91-70.451v-52.5c0-5.46,8.451-5.46,8.451,0,0,17.875-.149,35.674,0,53.475.224,29.242,18.1,56.166,45.846,66.337,17.65,6.507,38.068,4.338,56.615,4.338h29.841c8.675,0,17.126-.225,25.578-2.543,30.364-8.3,51.23-36.422,51.529-67.684.075-5.46,8.526-5.46,8.526,0-.374,36.572-26.1,69.4-62.225,76.958-8.6,1.794-17.276,1.72-26.026,1.72h-33.88c-4.125,0-8.24.045-12.335.045C-1892.589,223.5-1909.818,222.665-1926.015,213.809Zm-16.528-60.5c-3.814-15.182-1.945-32.533-1.945-48.014,0-16.9-1.271-33.73,6.133-49.511,10.4-22.063,33.131-35.9,57.363-36.123,13.163-.149,26.326,0,39.489,0,5.459,0,5.459,8.451,0,8.451-13.163,0-26.4-.149-39.564,0-24.082.224-45.846,16.005-52.651,39.264-3.889,13.238-2.244,28.644-2.244,42.331,0,13.537-1.72,28.794,1.8,42.032,6.357,24.007,28.345,40.461,53.026,40.76,5.459.075,5.459,8.526,0,8.526C-1909.786,200.646-1935.439,181.276-1942.543,153.3Zm76.135,47.566c-5.459,0-5.459-8.451,0-8.451,13.313,0,26.625.149,39.937,0,23.484-.224,44.948-15.257,52.2-37.843,4.412-13.686,2.692-29.542,2.692-43.752,0-13.537,1.72-28.794-1.8-42.032-6.357-24.007-28.42-40.461-53.026-40.76-5.459-.075-5.459-8.526,0-8.6,28.869.374,54.821,20.118,61.552,48.463,3.59,15.032,1.794,31.935,1.794,47.267,0,17.2,1.271,34.253-6.431,50.184-10.546,21.838-33.132,35.3-57.139,35.525q-6.657.075-13.29.066C-1848.758,200.937-1857.584,200.87-1866.408,200.87Zm52.277-54.9c0-1.57,3.665-9.274,3.665-9.274a1.437,1.437,0,0,1,1.346-.972,1.457,1.457,0,0,1,1.271.9s4.188,7.255,4.188,9.349a5.2,5.2,0,0,1-5.235,5.235A5.2,5.2,0,0,1-1814.131,145.975Zm-98.721-59.606c-.075-5.46,8.376-5.46,8.451,0,.374,27.672,22.736,50.557,50.633,50.632,27.9,0,50.258-23.035,50.632-50.632.075-5.46,8.526-5.46,8.451,0-.448,32.159-26.55,59.083-59.083,59.083S-1912.4,118.527-1912.852,86.369Zm107.7,45.4c0-1.047,2.393-5.983,2.393-5.983a.876.876,0,0,1,.823-.6.953.953,0,0,1,.823.6s2.693,4.712,2.693,5.983a3.351,3.351,0,0,1-3.365,3.366A3.351,3.351,0,0,1-1805.156,131.765Zm56.091-3.291c0-17.5.149-35.076,0-52.577-.3-29.616-18.922-56.915-47.266-66.562-17.5-5.983-37.619-3.814-55.793-3.814-17.65,0-37.544-2.169-54.82,2.543-30.365,8.3-51.231,36.422-51.53,67.684-.075,5.46-8.6,5.46-8.526,0,.374-36.273,25.728-68.881,61.477-76.808,8.75-1.87,17.5-1.87,26.4-1.87h33.131c21.464,0,42.7-1.421,62.524,8.526,26.625,13.611,42.779,41.433,42.854,71.049.075,17.276,0,34.552,0,51.829a4,4,0,0,1-4.226,4.095A4,4,0,0,1-1749.064,128.474Z" transform="translate(4795.169 345.176)"/>
</svg>
