<svg xmlns="http://www.w3.org/2000/svg" viewBox="5532.807 3656 31.696 20.333">
  <defs>
    <style>
      .cls-1 {
        fill: #31e8e1;
      }
    </style>
  </defs>
  <path id="Compartir" class="cls-1" d="M16.249,17.009c0-.846-.006-1.7.006-2.546,0-.216-.051-.3-.286-.293a40.8,40.8,0,0,0-6.651.516,12.886,12.886,0,0,0-5.836,2.59,8.29,8.29,0,0,0-2.132,2.539.9.9,0,0,1-.407.471A.675.675,0,0,1,0,19.593a12.049,12.049,0,0,1,.165-2.088A11.332,11.332,0,0,1,3.723,11.02,17.1,17.1,0,0,1,8.312,8.035a27.833,27.833,0,0,1,6.479-2.018c.376-.07.751-.127,1.133-.165.255-.025.331-.134.331-.388-.013-1.477-.006-2.947-.006-4.423V.754A.678.678,0,0,1,17.356.162c.885.579,1.757,1.177,2.635,1.769l5.48,3.685q2.73,1.833,5.448,3.679c.14.1.293.178.426.28a.678.678,0,0,1-.006,1.19c-.554.395-1.12.764-1.68,1.139q-2.52,1.69-5.034,3.386-2.74,1.843-5.486,3.685c-.554.369-1.107.745-1.655,1.127a.8.8,0,0,1-.885.146.811.811,0,0,1-.363-.8C16.255,18.638,16.249,17.824,16.249,17.009Z" transform="translate(5532.807 3655.991)"/>
</svg>
