<svg xmlns="http://www.w3.org/2000/svg" viewBox="4891 1681.919 27.756 27.729">
  <defs>
    <style>
      .cls-1 {
        fill: #0038a8;
      }
    </style>
  </defs>
  <g id="facebook_icon_color" data-name="facebook_icon color" transform="translate(4044 1156.919)">
    <path id="Facebook_logo" data-name="Facebook logo" class="cls-1" d="M0,23.57V4.159a.964.964,0,0,0,.082-.3A4.8,4.8,0,0,1,3.534.163L4.187,0H23.6c.054.054.109.027.163.054a4.777,4.777,0,0,1,3.86,3.561,3.179,3.179,0,0,0,.136.544V23.57a.293.293,0,0,0-.054.217,4.792,4.792,0,0,1-3.534,3.806,4.346,4.346,0,0,1-.571.136H18.242c0-.082-.027-.136-.027-.217v-10c0-.19.054-.245.245-.245h4.132c.19,0,.245-.054.245-.245V12.859c0-.217-.054-.245-.245-.245H18.4c-.082,0-.19.027-.19-.109a16.117,16.117,0,0,1,.027-1.985,1.037,1.037,0,0,1,1.087-.979c1.087.027,2.175,0,3.262,0,.19,0,.245-.054.245-.245V5.138c0-.19-.054-.245-.245-.245h-3.4a4.524,4.524,0,0,0-2.746.87,6,6,0,0,0-2.474,4.023,13.61,13.61,0,0,0-.082,2.583c0,.163-.027.217-.217.217H10.738c-.19,0-.245.054-.245.245v4.159c0,.19.054.245.245.245h2.909c.217,0,.272.054.272.272V27.729H4.214c-.054-.054-.136-.027-.19-.054A4.79,4.79,0,0,1,.19,24.141,4.684,4.684,0,0,1,0,23.57Z" transform="translate(847 525)"/>
  </g>
</svg>
