<svg xmlns="http://www.w3.org/2000/svg" viewBox="5424.714 3651 26.767 29.979">
  <defs>
    <style>
      .cls-1 {
        fill: #31e8e1;
      }
    </style>
  </defs>
  <g id="notificaciones" transform="translate(5424.714 3651)">
    <path id="Union_7" data-name="Union 7" class="cls-1" d="M9.254,26.231H2.141A2.148,2.148,0,0,1,0,24.09V21.681A2.148,2.148,0,0,1,2.141,19.54H3.212V10.974a8.532,8.532,0,0,1,6.852-8.4,3.6,3.6,0,0,1,6.906,0,8.532,8.532,0,0,1,6.852,8.4V19.54h.8a2.148,2.148,0,0,1,2.141,2.141V24.09a2.148,2.148,0,0,1-2.141,2.141h-7.09a4.161,4.161,0,0,1-8.281,0Zm4.129,1.338a1.768,1.768,0,0,0,1.472-.8H11.911A1.768,1.768,0,0,0,13.383,27.57ZM2.409,23.822H24.358V21.949H21.413V10.974a6.124,6.124,0,0,0-5.594-6.129l-1.1-.107V3.587a1.2,1.2,0,0,0-2.409,0V4.738l-1.1.107a6.124,6.124,0,0,0-5.594,6.129V21.949H2.409Z" transform="translate(0 0)"/>
  </g>
</svg>
