<svg xmlns="http://www.w3.org/2000/svg" viewBox="3384.712 -1161.244 29.575 29.588">
  <defs>
    <style>
      .cls-1 {
        fill: #31e8e1;
      }
    </style>
  </defs>
  <path id="Path_74" data-name="Path 74" class="cls-1" d="M16.693,0h.394a13.629,13.629,0,0,0,2.261.591c.421.105.591.289.591.71.013.762.026,1.538.066,2.3a1.154,1.154,0,0,0,1.682.973c.67-.368,1.354-.723,2-1.117a.624.624,0,0,1,.907.105c.5.552,1.025,1.091,1.564,1.59a.618.618,0,0,1,.092.92c-.407.644-.789,1.314-1.17,1.972a1.156,1.156,0,0,0,.854,1.7c.8.079,1.617.131,2.419.171.434.013.6.223.7.618a14.357,14.357,0,0,0,.526,2.221v.394c-.828.434-1.669.868-2.5,1.3a1.315,1.315,0,0,0-.2,2.077c.591.447,1.183.907,1.8,1.314.421.289.591.578.355,1.078a18.043,18.043,0,0,0-.657,1.774c-.145.434-.355.644-.868.539-.578-.118-1.183-.092-1.761-.21a1.393,1.393,0,0,0-1.617.749,1.112,1.112,0,0,0-.145,1.2c.263.552.407,1.157.67,1.709a.964.964,0,0,1-.421,1.459c-.6.355-1.065,1.117-1.709,1.144-.684.013-1.2-.736-1.709-1.209a1.6,1.6,0,0,0-2.09-.329c-.421.223-.736.407-.789.92-.053.447-.184.894-.276,1.341-.3,1.314-.3,1.314-1.656,1.5a1.756,1.756,0,0,0-.237.092H14.459a5.069,5.069,0,0,1-.723-1.945,1.806,1.806,0,0,0-1.8-1.6,1.053,1.053,0,0,0-1.052.315c-.381.447-.815.854-1.236,1.275-.894.894-.618.776-1.617.237-1.748-.96-1.814-1-1.209-2.879a2.043,2.043,0,0,0-.762-2.537.836.836,0,0,0-.828-.223c-.736.2-1.5.329-2.235.513a.611.611,0,0,1-.841-.368c-.276-.591-.578-1.17-.894-1.748a.568.568,0,0,1,.131-.8c.46-.407.868-.881,1.354-1.236a1.57,1.57,0,0,0,.6-1.88,1.219,1.219,0,0,0-.946-1.078C1.59,15.379.8,15.063,0,14.761v-.92a7.269,7.269,0,0,0,.237-1.6.668.668,0,0,1,.644-.67c.776-.105,1.551-.263,2.313-.421a1.573,1.573,0,0,0,.841-2.182c-.46-.618-.92-1.222-1.393-1.827a.567.567,0,0,1,0-.815c.447-.539.894-1.078,1.314-1.643a.638.638,0,0,1,.894-.237c.723.315,1.446.618,2.182.907A1.353,1.353,0,0,0,8.78,4.1c-.039-.762-.092-1.525-.184-2.287a.583.583,0,0,1,.473-.723C9.753.881,10.45.657,11.12.407A.614.614,0,0,1,11.988.7c.447.67.907,1.341,1.38,2a1.185,1.185,0,0,0,1.906-.131C15.773,1.682,16.233.841,16.693,0ZM14.735,23.423a8.676,8.676,0,1,0-8.583-8.767A8.67,8.67,0,0,0,14.735,23.423Z" transform="translate(3384.712 -1161.244)"/>
</svg>
